<svg width="13" height="13" viewBox="0 0 13 13" fill="none" xmlns="http://www.w3.org/2000/svg">
<path fill-rule="evenodd" clip-rule="evenodd" d="M7.2334 12.225C6.2669 12.225 5.4834 11.4415 5.4834 10.475V5.47498C5.4834 4.50848 6.2669 3.72498 7.2334 3.72498H10.2334C11.1999 3.72498 11.9834 4.50848 11.9834 5.47498V10.475C11.9834 11.4415 11.1999 12.225 10.2334 12.225H7.2334ZM6.9834 10.475C6.9834 10.5413 7.00974 10.6049 7.05662 10.6518C7.10351 10.6986 7.16709 10.725 7.2334 10.725H10.2334C10.2997 10.725 10.3633 10.6986 10.4102 10.6518C10.4571 10.6049 10.4834 10.5413 10.4834 10.475V5.47498C10.4834 5.40867 10.4571 5.34508 10.4102 5.2982C10.3633 5.25131 10.2997 5.22498 10.2334 5.22498H7.2334C7.16709 5.22498 7.10351 5.25131 7.05662 5.2982C7.00974 5.34508 6.9834 5.40867 6.9834 5.47498V10.475Z" fill="#9B9BA6"/>
<path d="M3.7334 0.224976C2.7669 0.224976 1.9834 1.00848 1.9834 1.97498V6.97498C1.9834 7.94148 2.7669 8.72498 3.7334 8.72498C3.93231 8.72498 4.12308 8.64596 4.26373 8.50531C4.40438 8.36465 4.4834 8.17389 4.4834 7.97498C4.4834 7.77606 4.40438 7.5853 4.26373 7.44465C4.12308 7.30399 3.93231 7.22498 3.7334 7.22498C3.66709 7.22498 3.60351 7.19864 3.55662 7.15175C3.50974 7.10487 3.4834 7.04128 3.4834 6.97498V1.97498C3.4834 1.90867 3.50974 1.84508 3.55662 1.7982C3.60351 1.75131 3.66709 1.72498 3.7334 1.72498H6.7334C6.7997 1.72498 6.86329 1.75131 6.91018 1.7982C6.95706 1.84508 6.9834 1.90867 6.9834 1.97498C6.9834 2.17389 7.06242 2.36465 7.20307 2.50531C7.34372 2.64596 7.53449 2.72498 7.7334 2.72498C7.93231 2.72498 8.12308 2.64596 8.26373 2.50531C8.40438 2.36465 8.4834 2.17389 8.4834 1.97498C8.4834 1.00848 7.6999 0.224976 6.7334 0.224976H3.7334Z" fill="#9B9BA6"/>
</svg>
