<svg width="18" height="18" viewBox="0 0 18 18" fill="none" xmlns="http://www.w3.org/2000/svg">
<g clip-path="url(#clip0_58_2292)">
<path d="M12.65 5.29317L6.63803 5.29494C6.43905 5.295 6.2482 5.3741 6.10746 5.51484C5.96671 5.65559 5.88761 5.84644 5.88755 6.04542C5.8875 6.2444 5.96648 6.43521 6.10714 6.57587C6.2478 6.71653 6.43861 6.79552 6.63759 6.79546L10.8385 6.79414L5.75198 11.8806C5.61125 12.0213 5.53216 12.2122 5.5321 12.4112C5.53204 12.6101 5.61102 12.8009 5.75167 12.9416C5.89232 13.0822 6.08311 13.1612 6.28207 13.1611C6.48104 13.1611 6.67188 13.082 6.81261 12.9412L11.8991 7.85476L11.8978 12.0556C11.8977 12.2546 11.9767 12.4454 12.1174 12.5861C12.258 12.7267 12.4488 12.8057 12.6478 12.8057C12.8468 12.8056 13.0376 12.7265 13.1784 12.5858C13.3191 12.445 13.3982 12.2542 13.3983 12.0552L13.4 6.04577L13.4001 6.04321C13.4001 5.94468 13.3807 5.84712 13.343 5.7561C13.3054 5.66509 13.2501 5.58239 13.1805 5.51274C13.1108 5.44309 13.0281 5.38785 12.9371 5.35018C12.8461 5.3125 12.7485 5.29313 12.65 5.29317Z" fill="#9B9BA6"/>
</g>
<defs>
<clipPath id="clip0_58_2292">
<rect width="12" height="12" fill="white" transform="translate(9.46875 0.739685) rotate(45)"/>
</clipPath>
</defs>
</svg>
